<svg xmlns="http://www.w3.org/2000/svg" width="40.555" height="45.913" viewBox="0 0 40.555 45.913">
  <path id="Icon_awesome-hand-pointer" data-name="Icon awesome-hand-pointer" d="M37.549,20.116v8.046a3.351,3.351,0,0,1-.089.768l-2.682,11.4a3.353,3.353,0,0,1-3.264,2.585H14.081a3.353,3.353,0,0,1-2.711-1.381L.641,26.781a3.353,3.353,0,1,1,5.423-3.944l2.653,3.647V3.353a3.353,3.353,0,0,1,6.705,0V20.116h.671V16.763a3.353,3.353,0,1,1,6.705,0v3.353h.671V18.1a3.353,3.353,0,1,1,6.705,0v2.012h.671a3.353,3.353,0,1,1,6.705,0ZM16.093,26.821h-.671v8.046h.671Zm7.376,0H22.8v8.046h.671Zm7.376,0h-.671v8.046h.671Z" transform="translate(1.506 1.5)" fill="#fff" stroke="#000" stroke-width="3"/>
</svg>
