<svg xmlns="http://www.w3.org/2000/svg" width="123.847" height="15.927" viewBox="0 0 123.847 15.927">
  <g id="그룹_10" data-name="그룹 10" transform="translate(-213.378 -836.309)">
    <path id="패스_6" data-name="패스 6" d="M0,12.079l1.478-3.61A9.566,9.566,0,0,0,3.252,9.486a3.837,3.837,0,0,0,1.457.321,1.344,1.344,0,0,0,.748-.18.559.559,0,0,0,.273-.489q0-.537-1.365-.819l-.685-.15a4.071,4.071,0,0,1-2.21-1.25A3.326,3.326,0,0,1,.7,4.684,4.284,4.284,0,0,1,2.193,1.3,5.7,5.7,0,0,1,6.093,0,8.33,8.33,0,0,1,8.279.292a10.123,10.123,0,0,1,2.162.879L9.032,4.543A5.778,5.778,0,0,0,7.689,3.79a3.623,3.623,0,0,0-1.307-.26,1.431,1.431,0,0,0-.748.163.507.507,0,0,0-.264.453q0,.546,1.928.96.308.072.475.106a3.672,3.672,0,0,1,2.1,1.224,3.39,3.39,0,0,1,.766,2.236,4.435,4.435,0,0,1-1.545,3.495A5.87,5.87,0,0,1,5.07,13.522a9.221,9.221,0,0,1-2.535-.361A11.484,11.484,0,0,1,0,12.079Z" transform="matrix(0.985, -0.174, 0.174, 0.985, 310.993, 838.649)"/>
    <path id="패스_7" data-name="패스 7" d="M0,6.99V0H4.635V7.025a3.427,3.427,0,0,0,.291,1.686,1.082,1.082,0,0,0,.993.463A1.084,1.084,0,0,0,6.913,8.7a3.351,3.351,0,0,0,.3-1.673V0h4.631V6.99a11.7,11.7,0,0,1-.18,2.262,4.183,4.183,0,0,1-.577,1.488,5.056,5.056,0,0,1-2.113,1.849,6.972,6.972,0,0,1-3.055.643,6.994,6.994,0,0,1-3.065-.643A5.056,5.056,0,0,1,.74,10.741,4.137,4.137,0,0,1,.177,9.27,12.013,12.013,0,0,1,0,6.99Z" transform="translate(325.377 837.875)"/>
    <path id="패스_9" data-name="패스 9" d="M0,12.889V0H4.64V8.706H9.147v4.183Z" transform="matrix(0.985, 0.174, -0.174, 0.985, 215.621, 837.513)"/>
    <path id="패스_8" data-name="패스 8" d="M0,12.889V0H4.71V12.889Z" transform="translate(226.244 838.421) rotate(-7)"/>
    <path id="패스_10" data-name="패스 10" d="M12.933,12.889,12.37,7.783q-.053-.59-.106-1.175t-.088-1.175q-.079.555-.225,1.175t-.356,1.325L10.117,12.89H7.36L5.882,7.932q-.22-.7-.361-1.325T5.3,5.432q-.044.6-.092,1.18t-.1,1.171l-.565,5.106H0L2.2,0H6.982L7.9,3.188l.132.449a19.693,19.693,0,0,1,.713,3.318h.079q.106-.819.317-1.743T9.7,3.134L10.662,0h4.771l2.042,12.889Z" transform="translate(233.819 839.352) rotate(-9)"/>
    <path id="패스_12" data-name="패스 12" d="M3.706,7.122V0h4.64V8.381A7.947,7.947,0,0,1,8.2,10.1a3.835,3.835,0,0,1-.471,1.154,4.043,4.043,0,0,1-1.586,1.461,4.72,4.72,0,0,1-2.219.519,6.2,6.2,0,0,1-2.108-.343A5.989,5.989,0,0,1,0,11.824l1.515-3.46a3.852,3.852,0,0,0,.721.63,1.151,1.151,0,0,0,.608.2.685.685,0,0,0,.683-.377,4.857,4.857,0,0,0,.18-1.692Z" transform="matrix(0.985, -0.174, 0.174, 0.985, 254.58, 838.068)"/>
    <path id="패스_11" data-name="패스 11" d="M2.95-28.752v-6.99H7.583v7.025a3.427,3.427,0,0,0,.291,1.686,1.082,1.082,0,0,0,.993.463,1.084,1.084,0,0,0,.995-.475,3.351,3.351,0,0,0,.3-1.673v-7.026h4.631v6.99a11.7,11.7,0,0,1-.18,2.262A4.183,4.183,0,0,1,14.034-25a5.056,5.056,0,0,1-2.113,1.849,6.972,6.972,0,0,1-3.055.643A6.994,6.994,0,0,1,5.8-23.153,5.056,5.056,0,0,1,3.688-25a4.137,4.137,0,0,1-.563-1.47,12.013,12.013,0,0,1-.175-2.28Z" transform="translate(263.645 872.901)"/>
    <path id="패스_13" data-name="패스 13" d="M0,12.889V0H4.544l4,6.743a8.512,8.512,0,0,1-.11-.995q-.03-.548-.03-1.426V0h4.463V12.889H8.291L4.331,6.2q.072.433.106.929T4.473,8.24v4.649Z" transform="matrix(0.985, 0.174, -0.174, 0.985, 282.694, 837.3)"/>
    <path id="패스_14" data-name="패스 14" d="M0,12.889V0H8.618V3.495H4.544V4.736h3.7v3.3h-3.7V9.393H8.726v3.5Z" transform="matrix(0.985, -0.174, 0.174, 0.985, 298.133, 837.827)"/>
  </g>
</svg>
