<svg xmlns="http://www.w3.org/2000/svg" width="52.156" height="80.686" viewBox="0 0 52.156 80.686">
  <g id="그룹_1" data-name="그룹 1" transform="translate(-303.637 -590.652)">
    <path id="패스_6" data-name="패스 6" d="M3.345,0V-35.742H16.211V-11.6h12.5V0Z" transform="matrix(0.985, 0.174, -0.174, 0.985, 304.621, 625.271)" fill="#707070"/>
    <path id="패스_5" data-name="패스 5" d="M9.79-15.991V-35.742H22.656V-12.5a22.038,22.038,0,0,1-.4,4.761,10.634,10.634,0,0,1-1.306,3.2A11.213,11.213,0,0,1,16.553-.488,13.089,13.089,0,0,1,10.4.952,17.179,17.179,0,0,1,4.553,0,16.607,16.607,0,0,1-.488-2.954l4.2-9.595a10.681,10.681,0,0,0,2,1.746,3.191,3.191,0,0,0,1.685.549A1.9,1.9,0,0,0,9.29-11.3,13.469,13.469,0,0,0,9.79-15.991Z" transform="matrix(0.985, -0.174, 0.174, 0.985, 333.316, 646.897)" fill="#707070"/>
    <path id="패스_4" data-name="패스 4" d="M.1-3.052l4.1-10.01a26.526,26.526,0,0,0,4.919,2.82,10.64,10.64,0,0,0,4.041.891,3.727,3.727,0,0,0,2.075-.5,1.549,1.549,0,0,0,.757-1.355q0-1.489-3.784-2.271-1.221-.269-1.9-.415a11.288,11.288,0,0,1-6.128-3.467,9.223,9.223,0,0,1-2.124-6.2,11.879,11.879,0,0,1,4.126-9.375q4.126-3.613,10.815-3.613a23.089,23.089,0,0,1,6.055.806A28.071,28.071,0,0,1,29.053-33.3L25.146-23.95a16.024,16.024,0,0,0-3.723-2.087,10.047,10.047,0,0,0-3.625-.72,3.967,3.967,0,0,0-2.075.452,1.406,1.406,0,0,0-.732,1.257q0,1.514,5.347,2.661.854.2,1.318.293A10.183,10.183,0,0,1,27.466-18.7a9.4,9.4,0,0,1,2.124,6.2,12.3,12.3,0,0,1-4.285,9.692Q21.021.952,14.16.952a25.571,25.571,0,0,1-7.031-1A31.845,31.845,0,0,1,.1-3.052Z" transform="matrix(0.985, -0.174, 0.174, 0.985, 309.887, 670.418)" fill="#707070"/>
  </g>
</svg>
